<svg width="23" height="22" viewBox="0 0 23 22" fill="none" xmlns="http://www.w3.org/2000/svg">
<path d="M20.2812 0H3.09375C1.79932 0 0.75 1.04932 0.75 2.34375V19.5312C0.75 20.8257 1.79932 21.875 3.09375 21.875H20.2812C21.5757 21.875 22.625 20.8257 22.625 19.5312V2.34375C22.625 1.04932 21.5757 0 20.2812 0ZM6.21875 18.75C4.92432 18.75 3.875 17.7007 3.875 16.4062C3.875 15.1118 4.92432 14.0625 6.21875 14.0625C7.51318 14.0625 8.5625 15.1118 8.5625 16.4062C8.5625 17.7007 7.51318 18.75 6.21875 18.75ZM13.9108 18.75H12.2343C11.9408 18.75 11.6947 18.5236 11.6756 18.2308C11.421 14.3221 8.29458 11.2034 4.39419 10.9494C4.10137 10.9303 3.875 10.6842 3.875 10.3907V8.71421C3.875 8.39512 4.14199 8.13916 4.46064 8.15635C9.8584 8.44805 14.1773 12.7724 14.4687 18.1644C14.4858 18.483 14.2299 18.75 13.9108 18.75ZM18.9414 18.75H17.2649C16.9641 18.75 16.7193 18.5116 16.707 18.211C16.4336 11.5443 11.0818 6.19145 4.41401 5.91807C4.11338 5.90571 3.875 5.66089 3.875 5.36006V3.68359C3.875 3.36846 4.13564 3.11406 4.45054 3.12539C12.6454 3.41958 19.2069 10.0195 19.4996 18.1745C19.5109 18.4894 19.2565 18.75 18.9414 18.75Z" fill="#51A8DD"/>
</svg>
