<svg width="23" height="23" viewBox="0 0 23 23" fill="none" xmlns="http://www.w3.org/2000/svg">
<path d="M20.2812 0.5625H3.09375C1.79932 0.5625 0.75 1.61182 0.75 2.90625V20.0938C0.75 21.3882 1.79932 22.4375 3.09375 22.4375H20.2812C21.5757 22.4375 22.625 21.3882 22.625 20.0938V2.90625C22.625 1.61182 21.5757 0.5625 20.2812 0.5625ZM6.21875 19.3125C4.92432 19.3125 3.875 18.2632 3.875 16.9688C3.875 15.6743 4.92432 14.625 6.21875 14.625C7.51318 14.625 8.5625 15.6743 8.5625 16.9688C8.5625 18.2632 7.51318 19.3125 6.21875 19.3125ZM13.9108 19.3125H12.2343C11.9408 19.3125 11.6947 19.0861 11.6756 18.7933C11.421 14.8846 8.29458 11.7659 4.39419 11.5119C4.10137 11.4928 3.875 11.2467 3.875 10.9532V9.27671C3.875 8.95762 4.14199 8.70166 4.46064 8.71885C9.8584 9.01055 14.1773 13.3349 14.4687 18.7269C14.4858 19.0455 14.2299 19.3125 13.9108 19.3125ZM18.9414 19.3125H17.2649C16.9641 19.3125 16.7193 19.0741 16.707 18.7735C16.4336 12.1068 11.0818 6.75395 4.41401 6.48057C4.11338 6.46821 3.875 6.22339 3.875 5.92256V4.24609C3.875 3.93096 4.13564 3.67656 4.45054 3.68789C12.6454 3.98208 19.2069 10.582 19.4996 18.737C19.5109 19.0519 19.2565 19.3125 18.9414 19.3125V19.3125Z" fill="#51A8DD"/>
</svg>
