<svg width="23" height="25" viewBox="0 0 23 25" fill="none" xmlns="http://www.w3.org/2000/svg">
<path d="M15.1375 11.875C15.1375 12.6375 14.575 13.2625 13.8625 13.2625C13.1625 13.2625 12.5875 12.6375 12.5875 11.875C12.5875 11.1125 13.15 10.4875 13.8625 10.4875C14.575 10.4875 15.1375 11.1125 15.1375 11.875ZM9.3 10.4875C8.5875 10.4875 8.025 11.1125 8.025 11.875C8.025 12.6375 8.6 13.2625 9.3 13.2625C10.0125 13.2625 10.575 12.6375 10.575 11.875C10.5875 11.1125 10.0125 10.4875 9.3 10.4875ZM22.5 2.575V25C19.3509 22.2171 20.358 23.1383 16.7 19.7375L17.3625 22.05H3.1875C1.775 22.05 0.625 20.9 0.625 19.475V2.575C0.625 1.15 1.775 0 3.1875 0H19.9375C21.35 0 22.5 1.15 22.5 2.575ZM18.9375 14.425C18.9375 10.4 17.1375 7.1375 17.1375 7.1375C15.3375 5.7875 13.625 5.825 13.625 5.825L13.45 6.025C15.575 6.675 16.5625 7.6125 16.5625 7.6125C13.5932 5.98511 10.1053 5.98481 7.225 7.25C6.7625 7.4625 6.4875 7.6125 6.4875 7.6125C6.4875 7.6125 7.525 6.625 9.775 5.975L9.65 5.825C9.65 5.825 7.9375 5.7875 6.1375 7.1375C6.1375 7.1375 4.3375 10.4 4.3375 14.425C4.3375 14.425 5.3875 16.2375 8.15 16.325C8.15 16.325 8.6125 15.7625 8.9875 15.2875C7.4 14.8125 6.8 13.8125 6.8 13.8125C6.98389 13.9412 7.28711 14.1081 7.3125 14.125C9.42236 15.3065 12.4193 15.6937 15.1125 14.5625C15.55 14.4 16.0375 14.1625 16.55 13.825C16.55 13.825 15.925 14.85 14.2875 15.3125C14.6625 15.7875 15.1125 16.325 15.1125 16.325C17.875 16.2375 18.9375 14.425 18.9375 14.425Z" fill="#51A8DD"/>
</svg>
