<svg width="22" height="23" viewBox="0 0 22 23" fill="none" xmlns="http://www.w3.org/2000/svg">
<path d="M19.5312 0.5625H2.34375C1.72215 0.5625 1.12601 0.80943 0.686468 1.24897C0.24693 1.68851 0 2.28465 0 2.90625L0 20.0938C0 20.7154 0.24693 21.3115 0.686468 21.751C1.12601 22.1906 1.72215 22.4375 2.34375 22.4375H9.04541V15.0005H5.96924V11.5H9.04541V8.83203C9.04541 5.79736 10.8521 4.12109 13.6191 4.12109C14.9443 4.12109 16.3301 4.35742 16.3301 4.35742V7.33594H14.8032C13.2988 7.33594 12.8296 8.26953 12.8296 9.22705V11.5H16.188L15.6509 15.0005H12.8296V22.4375H19.5312C20.1529 22.4375 20.749 22.1906 21.1885 21.751C21.6281 21.3115 21.875 20.7154 21.875 20.0938V2.90625C21.875 2.28465 21.6281 1.68851 21.1885 1.24897C20.749 0.80943 20.1529 0.5625 19.5312 0.5625V0.5625Z" fill="#51A8DD"/>
</svg>
