<svg width="286" height="44" viewBox="0 0 286 44" fill="none" xmlns="http://www.w3.org/2000/svg">
<path fill-rule="evenodd" clip-rule="evenodd" d="M24.6658 0H0V44H13.6963L24.6658 0ZM19.356 44L30.3255 0H71.3846V44H19.356Z" fill="white"/>
<path d="M99.6772 28.7908H89.0436L86.2766 34.8333H82.2386L94.5293 8.39142L106.386 34.8333H102.283L99.6772 28.7908ZM98.149 25.262L94.465 16.8026L90.604 25.262H98.149Z" fill="white"/>
<path d="M107.914 26.8734C107.914 24.6068 108.724 22.6785 110.343 21.0887C111.963 19.4988 113.936 18.7039 116.263 18.7039C118.601 18.7039 120.585 19.5042 122.216 21.1048C123.824 22.7054 124.629 24.6712 124.629 27.0023C124.629 29.3548 123.819 31.326 122.199 32.9158C120.569 34.4949 118.569 35.2845 116.199 35.2845C113.85 35.2845 111.882 34.4788 110.295 32.8675C108.708 31.2777 107.914 29.2796 107.914 26.8734ZM111.614 26.9378C111.614 28.5062 112.032 29.7469 112.869 30.66C113.727 31.5838 114.858 32.0457 116.263 32.0457C117.679 32.0457 118.81 31.5892 119.658 30.6761C120.505 29.763 120.929 28.5438 120.929 27.0184C120.929 25.493 120.505 24.2737 119.658 23.3607C118.8 22.4368 117.668 21.9749 116.263 21.9749C114.88 21.9749 113.759 22.4368 112.901 23.3607C112.043 24.2845 111.614 25.4769 111.614 26.9378Z" fill="white"/>
<path d="M132.399 22.5228V34.8333H128.779V22.5228H127.235V19.139H128.779V13.3865H132.399V19.139H135.214V22.5228H132.399Z" fill="white"/>
<path d="M137.161 26.8734C137.161 24.6068 137.97 22.6785 139.59 21.0887C141.209 19.4988 143.183 18.7039 145.51 18.7039C147.848 18.7039 149.832 19.5042 151.462 21.1048C153.071 22.7054 153.875 24.6712 153.875 27.0023C153.875 29.3548 153.066 31.326 151.446 32.9158C149.816 34.4949 147.816 35.2845 145.446 35.2845C143.097 35.2845 141.129 34.4788 139.541 32.8675C137.954 31.2777 137.161 29.2796 137.161 26.8734ZM140.861 26.9378C140.861 28.5062 141.279 29.7469 142.115 30.66C142.973 31.5838 144.105 32.0457 145.51 32.0457C146.926 32.0457 148.057 31.5892 148.904 30.6761C149.752 29.763 150.175 28.5438 150.175 27.0184C150.175 25.493 149.752 24.2737 148.904 23.3607C148.046 22.4368 146.915 21.9749 145.51 21.9749C144.126 21.9749 143.006 22.4368 142.148 23.3607C141.29 24.2845 140.861 25.4769 140.861 26.9378Z" fill="white"/>
<path d="M161.34 7.61798V24.2147L166.439 19.139H171.298L164.493 25.7293L171.796 34.8333H167.099L161.919 28.2108L161.34 28.7908V34.8333H157.72V7.61798H161.34Z" fill="white"/>
<path d="M177.749 19.139V34.8333H174.129V19.139H177.749ZM173.582 12.6131C173.582 11.9793 173.813 11.4315 174.274 10.9695C174.735 10.5076 175.287 10.2767 175.931 10.2767C176.585 10.2767 177.143 10.5076 177.604 10.9695C178.065 11.4207 178.296 11.9739 178.296 12.6292C178.296 13.2845 178.065 13.8431 177.604 14.305C177.154 14.7669 176.601 14.9979 175.947 14.9979C175.293 14.9979 174.735 14.7669 174.274 14.305C173.813 13.8431 173.582 13.2791 173.582 12.6131Z" fill="white"/>
<path d="M186.066 22.5228V34.8333H182.446V22.5228H180.902V19.139H182.446V13.3865H186.066V19.139H188.881V22.5228H186.066Z" fill="white"/>
<path d="M200.448 21.8138L197.456 23.409C196.984 22.4422 196.399 21.9588 195.702 21.9588C195.37 21.9588 195.085 22.0716 194.85 22.2972C194.614 22.512 194.496 22.7913 194.496 23.1351C194.496 23.7366 195.193 24.3328 196.587 24.9236C198.507 25.7508 199.799 26.5135 200.464 27.2117C201.129 27.91 201.461 28.8499 201.461 30.0316C201.461 31.5462 200.904 32.8138 199.788 33.8343C198.705 34.8011 197.397 35.2845 195.863 35.2845C193.235 35.2845 191.375 34.0008 190.281 31.4334L193.369 29.9993C193.798 30.7513 194.126 31.2293 194.351 31.4334C194.791 31.8416 195.316 32.0457 195.927 32.0457C197.15 32.0457 197.761 31.4871 197.761 30.3699C197.761 29.7254 197.289 29.1238 196.346 28.5652C195.981 28.3826 195.616 28.2054 195.252 28.0335C194.887 27.8616 194.517 27.6844 194.142 27.5018C193.091 26.9861 192.351 26.4705 191.922 25.9549C191.375 25.2996 191.101 24.4564 191.101 23.4251C191.101 22.0609 191.568 20.9329 192.501 20.0413C193.455 19.1497 194.614 18.7039 195.976 18.7039C197.981 18.7039 199.472 19.7405 200.448 21.8138Z" fill="white"/>
<path d="M208.347 19.139V28.1463C208.347 30.7459 209.371 32.0457 211.419 32.0457C213.468 32.0457 214.492 30.7459 214.492 28.1463V19.139H218.112V28.2269C218.112 29.4837 217.956 30.5687 217.645 31.4818C217.345 32.2982 216.825 33.034 216.085 33.6893C214.862 34.7527 213.307 35.2845 211.419 35.2845C209.543 35.2845 207.993 34.7527 206.77 33.6893C206.019 33.034 205.489 32.2982 205.178 31.4818C204.877 30.7513 204.727 29.6663 204.727 28.2269V19.139H208.347Z" fill="white"/>
<path d="M222.68 19.139H226.3V20.5408C226.965 19.8426 227.555 19.3646 228.07 19.1068C228.595 18.8382 229.217 18.7039 229.936 18.7039C230.89 18.7039 231.888 19.0154 232.928 19.6385L231.271 22.9578C230.585 22.4637 229.914 22.2166 229.26 22.2166C227.287 22.2166 226.3 23.7098 226.3 26.6961V34.8333H222.68V19.139Z" fill="white"/>
<path d="M239.138 19.139V28.1463C239.138 30.7459 240.162 32.0457 242.21 32.0457C244.259 32.0457 245.283 30.7459 245.283 28.1463V19.139H248.903V28.2269C248.903 29.4837 248.747 30.5687 248.436 31.4818C248.136 32.2982 247.616 33.034 246.876 33.6893C245.653 34.7527 244.098 35.2845 242.21 35.2845C240.334 35.2845 238.784 34.7527 237.561 33.6893C236.81 33.034 236.28 32.2982 235.969 31.4818C235.668 30.7513 235.518 29.6663 235.518 28.2269V19.139H239.138Z" fill="white"/>
<path d="M258.41 31.9168L251.364 19.139H255.563L260.357 28.1624L264.829 19.139H268.915L256.432 43.3734H252.297L258.41 31.9168Z" fill="white"/>
<path d="M282.364 19.139H286V34.8333H282.364V33.1898C280.874 34.5862 279.27 35.2845 277.554 35.2845C275.388 35.2845 273.597 34.5003 272.181 32.9319C270.776 31.3314 270.074 29.3333 270.074 26.9378C270.074 24.5853 270.776 22.6248 272.181 21.0565C273.586 19.4881 275.345 18.7039 277.458 18.7039C279.281 18.7039 280.916 19.4559 282.364 20.9598V19.139ZM273.774 26.9378C273.774 28.4417 274.176 29.6663 274.98 30.6116C275.806 31.5677 276.846 32.0457 278.101 32.0457C279.442 32.0457 280.525 31.5838 281.351 30.66C282.177 29.7039 282.589 28.4901 282.589 27.0184C282.589 25.5467 282.177 24.3328 281.351 23.3768C280.525 22.4422 279.452 21.9749 278.133 21.9749C276.889 21.9749 275.849 22.4476 275.012 23.3929C274.187 24.3489 273.774 25.5306 273.774 26.9378Z" fill="white"/>
</svg>
