<svg width="249" height="59" viewBox="0 0 249 59" fill="none" xmlns="http://www.w3.org/2000/svg">
<path d="M34.76 13.808C37.256 14.192 39.816 13.552 39.816 10.864V8.36799H51.848C53.896 8.36799 55.048 7.53599 55.048 6.19199C55.048 5.29599 54.024 4.39999 52.616 3.18399C51.464 4.46399 50.76 5.23199 49.544 5.23199H39.816V2.09599C39.816 1.64799 39.56 1.26399 38.664 1.07199L34.76 0.367989V5.23199H21.704V1.96799C21.704 1.64799 21.384 1.26399 20.616 1.13599L16.648 0.431992V5.23199H1.09602C2.24802 7.79199 2.56802 8.36799 3.72002 8.36799H16.648V14C19.464 14.64 21.704 13.296 21.704 10.928V8.36799H34.76V13.808ZM56.264 22.256C50.76 21.296 45.064 19.696 40.584 17.712C36.36 15.792 33.032 13.936 30.792 12.208C31.432 11.376 31.24 11.056 30.088 10.288L27.272 8.36799C21.256 15.856 10.696 23.664 1.16002 28.272C0.136022 28.784 0.648022 29.744 1.54402 29.552C4.61602 28.848 8.32802 27.376 12.168 25.456C12.296 29.808 12.232 32.688 12.04 37.296C11.848 41.648 11.272 44.976 9.67202 48.24C8.00802 51.568 5.00002 54.832 2.76002 56.88C1.86402 57.648 2.82402 58.224 3.65602 57.904C7.04802 56.56 10.824 53.424 13.064 50.224C14.472 48.176 15.56 45.808 16.264 43.248V57.968C18.504 58.288 21.32 57.52 21.32 55.28V54.128H40.136V57.968C42.312 58.288 45.192 57.648 45.192 55.6V45.872C45.192 44.72 46.92 43.12 44.424 42.416L40.136 41.264C39.432 42.16 38.792 42.672 37.64 42.672H21.32C21.256 42.224 20.936 41.904 20.296 41.776L16.776 41.136C16.904 40.496 16.968 39.92 17.032 39.344H38.984V40.816C41.608 41.264 44.04 40.24 44.04 38V28.08C44.04 26.8 45.704 25.712 43.208 24.944L38.984 23.664C38.216 24.56 37.768 25.072 36.744 25.072H30.792C32.072 24.432 32.648 22.576 31.304 21.104C30.152 19.824 27.784 18.928 24.968 18.16C24.2 17.968 23.624 18.416 24.2 19.248C25.096 20.528 26.12 22.192 27.336 23.792C27.848 24.432 28.296 24.816 28.808 25.072H17.352C17.288 24.688 16.968 24.368 16.264 24.24L14.92 23.984C20.36 20.976 25.736 17.2 29.448 13.616C32.072 16.368 35.592 18.736 39.112 20.784C42.952 23.024 47.752 25.136 50.248 25.84C53.64 26.736 53.256 26.096 56.52 23.216C56.968 22.832 56.968 22.384 56.264 22.256ZM38.984 27.888V30.832H17.352V27.888H38.984ZM17.224 36.528C17.288 35.568 17.352 34.544 17.352 33.648H38.984V36.528H17.224ZM40.136 45.744V50.928H21.32V45.744H40.136Z" fill="white"/>
<path d="M86.408 11.76H98.568V19.696H86.408C87.688 22.384 87.944 23.024 88.84 23.024H113.16C115.08 23.024 116.488 22.384 116.488 20.784C116.488 19.888 115.208 18.928 113.992 17.776C113.032 18.992 112.264 19.696 111.112 19.696H103.752V11.76H115.72C117.832 11.76 119.176 11.12 119.176 9.51999C119.176 8.55999 118.152 7.79199 116.68 6.31999C115.528 7.66399 114.824 8.30399 113.672 8.30399H103.752V2.09599C103.752 1.58399 103.496 1.19999 102.6 1.00799L98.568 0.23999V8.30399H83.912C85.064 11.056 85.512 11.76 86.408 11.76ZM81.608 6.70399L77.384 5.23199C76.552 6.25599 75.912 6.70399 74.76 6.70399H70.408C70.408 6.31999 70.088 5.99999 69.384 5.87199L65.48 5.16799V50.16C68.232 50.544 70.408 49.392 70.408 46.448V44.08H77.384V48.496C80.136 49.008 82.312 47.792 82.312 45.232V10.288C82.312 9.13599 83.848 7.47199 81.608 6.70399ZM77.384 9.96799V23.536H70.408V9.96799H77.384ZM118.472 29.616C117.256 30.832 116.616 31.664 115.4 31.664H110.408V25.776C110.408 25.264 110.152 25.008 109.32 24.816L105.224 23.92V31.664H83.4C84.616 34.48 84.936 35.056 85.896 35.056H105.224V52.784C105.224 53.04 105.288 53.232 104.904 53.36C104.52 53.488 98.568 53.36 97.032 53.232C96.264 53.168 96.136 53.936 96.904 54.192C100.168 55.216 102.984 56.688 104.712 57.84C107.72 59.824 110.408 57.84 110.408 54.896V35.056H117.448C119.688 35.056 121.032 34.48 121.032 32.816C121.032 31.856 120.136 31.152 118.472 29.616ZM70.408 40.752V26.864H77.384V40.752H70.408ZM97.8 43.312C96.584 41.136 94.28 39.088 90.696 37.232C89.736 36.72 89.48 37.616 89.736 38.128C90.888 40.432 91.912 42.672 93.32 45.808C95.88 51.44 99.784 46.896 97.8 43.312Z" fill="white"/>
<path d="M182.216 7.47199C180.936 9.00799 180.232 9.58399 178.952 9.58399H168.52C169.48 8.62399 169.864 6.63999 168.84 5.16799C167.304 2.92799 165.512 1.90399 162.76 0.495991C161.864 0.0479889 161.352 0.623989 161.8 1.45599C162.824 3.37599 164.168 6.63999 165 8.23999C165.32 8.81599 165.64 9.26399 165.96 9.58399H148.744C150.024 12.272 150.28 13.04 151.496 13.04H162.696C161.096 17.712 158.984 22.448 157.32 25.52C156.232 24.752 155.016 23.92 153.544 23.088C152.776 22.64 152.072 23.408 152.52 24.048C154.952 27.504 157 31.92 159.432 35.568C162.312 39.92 165.96 35.376 163.144 31.216C162.12 29.68 160.84 28.272 159.112 26.864C161.864 23.92 165.64 18.992 167.112 16.816C167.88 15.664 167.752 15.216 166.536 14.512L163.976 13.04H181.064C183.56 13.04 184.904 12.4 184.904 10.864C184.904 9.77599 183.88 9.07199 182.216 7.47199ZM146.312 30.384L142.6 29.104C141.768 30 141.192 30.448 139.976 30.448H135.176L136.712 20.528H143.112V22.64C145.544 23.344 148.104 22 148.104 19.696V8.23999C148.104 7.21599 149.768 4.97599 147.336 4.20799L143.112 2.86399C142.152 4.01599 141.384 4.46399 140.168 4.46399H127.88C129.032 7.02399 129.288 7.79199 130.248 7.79199H143.112V17.264H137.224C137.224 16.944 136.776 16.496 136.008 16.24L132.616 15.344L129.16 35.888C130.632 36.336 131.784 36.4 132.872 35.952C133.704 35.632 134.408 34.8 134.664 33.776H142.664C142.472 40.816 141.512 47.6 140.296 50.16C138.888 53.168 138.568 53.168 132.424 52.72C131.592 52.656 131.4 53.296 131.912 53.552C136.584 55.792 137.032 58.288 139.528 57.776C145.416 56.56 147.528 45.68 147.592 34.16C147.592 33.2 149.384 31.408 146.312 30.384ZM173.192 39.472C172.488 38.896 171.592 39.28 172.104 40.24C173.512 42.8 174.664 45.552 175.816 48.368C171.784 49.008 166.216 49.712 158.792 50.608C165.256 44.528 174.088 30.896 177.16 24.688C177.608 23.792 177.544 23.28 175.752 22.128L172.68 20.208C167.944 32.624 159.624 45.808 154.888 51.12C152.456 51.376 150.856 51.504 147.4 51.76C150.6 56.624 150.792 56.816 152.84 56.432C159.56 55.152 169.096 52.848 176.776 50.544C177.48 52.336 178.248 54.128 179.08 55.92C180.872 59.76 185.224 56.496 183.368 51.568C181.576 46.832 178.312 43.696 173.192 39.472Z" fill="white"/>
<path d="M248.008 50.416C246.088 48.304 245.768 45.616 245.256 43.696C245.128 43.184 244.36 43.184 244.232 43.632L243.144 47.728C242.632 49.712 241.352 51.056 238.408 51.568C232.84 52.528 223.56 52.592 216.712 52.272C208.776 51.888 207.176 51.184 207.176 46.768V27.824L218.376 23.28V45.872C220.744 46.32 223.496 45.488 223.496 42.608V21.168L235.4 16.368C235.4 22.128 235.144 29.68 234.568 32.88C234.248 34.608 233.864 35.952 233.032 36.592C232.264 37.168 230.6 37.168 227.912 36.976C226.952 36.912 226.952 37.616 227.528 37.872C228.936 38.512 230.664 39.472 232.392 40.816C233.864 41.968 235.272 41.712 236.616 40.496C240.264 37.232 240.456 23.792 240.456 15.6C240.456 14.832 242.056 12.912 238.728 11.824L235.464 10.8C235.464 10.8 235.4 10.736 235.336 10.736C234.76 11.952 233.8 12.848 232.648 13.296L223.496 17.008V2.41599C223.496 2.15999 223.176 1.83999 222.536 1.71199L218.376 0.751991V19.056L207.176 23.6V10.608C207.176 10.224 206.92 9.77599 206.024 9.58399L202.056 8.62399V25.648L191.304 30C193.736 32.432 194.504 32.944 195.912 32.368L202.056 29.872V44.272C202.056 55.728 203.144 56.304 221.64 57.264C227.784 57.584 234.12 57.2 239.304 56.688C243.08 56.304 245.704 55.728 247.432 54.704C249.288 53.616 249.352 51.888 248.008 50.416Z" fill="white"/>
</svg>
