<svg width="204" height="23" viewBox="0 0 204 23" fill="none" xmlns="http://www.w3.org/2000/svg">
<path d="M22.5841 21.168C20.2321 20.28 18.0961 18.96 16.4641 17.4C17.9761 15.72 19.2241 13.584 20.0881 11.328C20.2561 10.896 20.2081 10.776 19.6561 10.344L18.7921 9.64804C18.4081 9.93604 18.1681 10.032 17.6641 10.032H16.0081V6.38404H20.0881C20.8561 6.38404 21.3601 6.07204 21.3601 5.54404C21.3601 5.18404 21.0001 4.94404 20.4481 4.44004C20.0641 4.92004 19.8001 5.13604 19.3921 5.13604H16.0081V1.53604C16.0081 1.32004 15.8641 1.17604 15.5281 1.10404L14.0881 0.816045V5.13604H10.0081C10.4401 6.02404 10.5601 6.38404 10.9681 6.38404H14.0881V10.032H9.88809C10.0801 9.86405 10.2721 9.72005 10.4161 9.57605C10.7281 9.28805 10.3681 9.04805 10.0801 9.21605C9.21609 9.72005 8.11209 10.296 6.91209 10.872V7.15204H8.30409C9.26409 7.15204 9.74409 6.91205 9.74409 6.28804C9.74409 5.90405 9.36009 5.64004 8.76009 5.11204C8.25609 5.66404 8.04009 5.90404 7.60809 5.90404H6.91209V1.56004C6.91209 1.34404 6.79209 1.22404 6.50409 1.17604L5.01609 0.888044V5.90404H1.05609C1.51209 6.96004 1.63209 7.15204 2.04009 7.15204H5.01609V11.784C3.62409 12.456 2.18409 13.08 0.840088 13.632L1.60809 14.352C2.32809 15.024 2.47209 14.976 2.88009 14.736C3.38409 14.448 4.15209 13.968 5.01609 13.416V20.136C5.01609 20.208 5.01609 20.256 4.92009 20.328C4.80009 20.424 3.19209 20.376 2.59209 20.376C2.32809 20.376 2.30409 20.664 2.54409 20.736C3.24009 20.952 4.24809 21.504 4.96809 22.128C5.85609 22.896 6.91209 22.32 6.91209 21.048V12.168C8.04009 11.4 9.12009 10.632 9.86409 10.032C10.2241 10.848 10.3681 11.28 10.7521 11.28H11.4961C12.0721 13.44 13.0561 15.648 14.3281 17.4C12.4321 19.272 9.55209 21.096 7.29609 22.056C6.91209 22.224 7.03209 22.608 7.46409 22.536C10.4401 22.008 13.3441 20.304 15.3121 18.552C16.8241 20.16 19.0081 21.672 20.2081 22.248C21.1921 22.728 21.2641 22.56 22.6321 21.528C22.8241 21.384 22.8721 21.288 22.5841 21.168ZM18.0721 11.28C17.5201 12.816 16.5121 14.784 15.3601 16.248C14.2321 14.88 13.2001 13.08 12.5521 11.28H18.0721Z" fill="white"/>
<path d="M25.5361 7.51204C27.9121 6.02404 29.6881 3.91205 30.7201 2.68805C31.0081 2.32804 30.9601 2.16004 30.4801 1.80005L29.4961 1.05604C28.6081 2.92804 27.0481 5.11204 25.2481 7.15204C25.0081 7.41604 25.2721 7.68005 25.5361 7.51204ZM38.6401 6.96004C39.5521 6.96004 40.0321 6.74404 40.0321 6.19204C40.0321 5.83205 39.6241 5.56805 39.0721 5.06404C38.6881 5.56805 38.4001 5.73604 38.0641 5.73604H36.3601V1.80005C36.3601 1.68004 36.2401 1.53604 35.9761 1.48804L34.5601 1.22404V5.73604H31.2241C31.6561 6.76804 31.8241 6.96004 32.2081 6.96004H34.5601V22.344C35.4721 22.536 36.3601 22.2 36.3601 21.192V6.96004H38.6401ZM38.1601 3.98404C38.9281 5.37604 40.3921 4.05604 39.3121 2.80804C39.0001 2.44804 38.1121 1.94404 37.4881 1.70404C37.1761 1.58404 37.0801 1.80005 37.2001 2.06404C37.4401 2.56805 37.8721 3.45605 38.1601 3.98404ZM41.0401 4.10404H44.5441C45.3601 4.10404 45.8401 3.81604 45.8401 3.33604C45.8401 3.00004 45.4081 2.68805 44.9761 2.25604C44.5921 2.71204 44.3761 2.85604 43.9441 2.85604H40.0801C40.5601 3.81604 40.6561 4.10404 41.0401 4.10404ZM31.2001 7.51204C31.4401 7.12805 31.3681 7.00804 30.9361 6.69604L29.9041 5.95204C28.8241 8.59205 27.0241 11.448 25.0081 13.68C24.7681 13.944 25.0081 14.28 25.2961 14.088C26.1361 13.536 26.9281 12.84 27.6481 12.096V22.536C28.6321 22.68 29.4481 22.296 29.4481 21.384V10.008C30.1681 9.09605 30.7441 8.20804 31.2001 7.51204ZM45.8161 7.34405C45.3601 7.77605 45.1921 7.96804 44.7841 7.96804H39.4561C39.9121 8.90404 40.0081 9.19205 40.3921 9.19205H42.4561V20.568C42.4561 20.664 42.4561 20.736 42.3361 20.808C42.2401 20.88 40.5121 20.808 39.9121 20.808C39.6241 20.808 39.6001 21.096 39.8641 21.168C40.4641 21.336 41.6641 21.84 42.3361 22.32C43.3201 23.016 44.2801 22.344 44.2801 21.12V9.19205H45.4081C46.2241 9.19205 46.6801 9.02405 46.6801 8.47205C46.6801 8.13605 46.2961 7.80005 45.8161 7.34405ZM33.2641 9.31204L31.8961 9.02405C31.9201 11.352 31.9681 12.936 31.8001 14.832C31.6321 16.632 31.0081 18.504 29.9761 19.848C29.7601 20.136 30.0961 20.304 30.3361 20.16C31.8001 19.224 33.6721 17.064 33.6721 12.504V9.62404C33.6721 9.50404 33.5281 9.36004 33.2641 9.31204ZM41.6401 16.872C41.4241 16.704 41.3521 16.632 41.2081 16.392L41.0161 16.056C40.9201 15.888 40.7281 15.912 40.6561 16.056L40.4881 16.44C40.3681 16.704 40.0801 16.776 39.5041 16.728C39.1441 16.704 39.0721 16.56 39.0721 15.984V9.64804C39.0721 9.52804 38.9041 9.40804 38.7121 9.36004L37.3201 9.07204V15.024C37.3201 17.976 37.3441 18.216 39.4321 18.312C40.5601 18.336 41.2561 18.192 41.5921 17.904C41.9041 17.664 42.0001 17.16 41.6401 16.872Z" fill="white"/>
<path d="M59.9521 20.712C60.6721 20.712 61.0801 20.424 61.0801 19.992C61.0801 19.704 60.7921 19.464 60.3121 19.008C59.9761 19.392 59.7361 19.632 59.3761 19.632H57.7441V17.784H59.4481C60.1921 17.784 60.5281 17.544 60.5281 17.064C60.5281 16.8 60.2641 16.608 59.7841 16.128C59.4001 16.584 59.2081 16.752 58.8481 16.752H57.7441V14.976H59.3761C60.1201 14.976 60.4561 14.736 60.4561 14.28C60.4561 14.04 60.1681 13.824 59.7121 13.344C59.3521 13.776 59.1601 13.944 58.8001 13.944H57.7441V12.096H59.7601C60.5041 12.096 60.8401 11.832 60.8401 11.376C60.8401 11.16 60.5761 10.896 60.0961 10.464C59.7361 10.872 59.5201 11.064 59.1841 11.064H57.6721C57.9601 10.8 58.1281 10.272 57.8641 9.76805C57.5761 9.19205 56.7841 8.78405 56.1361 8.44805C55.8481 8.30404 55.6321 8.47205 55.7281 8.71205C55.8481 9.04805 56.0401 9.64804 56.3761 10.512C56.4721 10.776 56.5921 10.944 56.7361 11.064H54.4321C54.6961 10.536 54.9121 10.056 55.1041 9.64804C55.3441 9.09604 55.3201 9.02404 54.8881 8.80804L53.7361 8.25604C53.2561 10.32 52.6801 11.952 51.9361 13.608C52.0801 12.072 52.1281 10.584 52.1281 9.40804V8.08804H58.4881V8.85604C59.3521 8.95204 60.2641 8.73604 60.2641 7.75204V5.52004C60.2641 5.13604 60.8401 4.51204 59.8801 4.24804L58.4881 3.86404C58.1521 4.24804 57.9361 4.39204 57.5041 4.39204H52.1281V3.55204C55.1041 3.28804 57.7201 2.97604 59.5201 2.56805C60.0001 2.47204 59.9281 2.18404 59.5921 1.84804L58.8001 1.08004C56.7601 1.89604 54.6481 2.49604 52.1041 2.83204C52.0561 2.73604 51.9361 2.66404 51.7201 2.64004L50.2801 2.35205C50.3521 5.80804 50.4241 9.67204 50.3281 13.224C50.2081 17.52 49.7281 20.088 49.1041 22.056C48.9841 22.44 49.2961 22.56 49.5121 22.32C50.2801 21.504 50.8081 19.968 51.2401 18.192C51.4561 17.208 51.6481 16.176 51.7681 15.12C52.0801 14.736 52.3681 14.376 52.6321 14.016V22.2C53.4721 22.224 54.3361 22.032 54.3361 21.024V20.712H59.9521ZM61.2001 3.19204H64.6081C64.4401 3.98404 64.2721 4.75204 64.0321 5.73604H63.2641C63.2401 5.56805 63.1441 5.47205 62.8321 5.40004L61.4881 5.11204V18.864C62.4241 18.984 63.2401 18.624 63.2641 17.592H67.7281V18.576C68.6401 18.672 69.5041 18.456 69.5041 17.472V6.93604C69.5041 6.40804 70.1281 5.92805 69.1681 5.64004L67.7281 5.20804C67.4401 5.56804 67.1521 5.73604 66.7921 5.73604H64.9441C65.4721 4.94404 66.0001 3.93604 66.3361 3.19204H69.2161C70.0081 3.19204 70.4161 2.90405 70.4161 2.44804C70.4161 2.08804 70.0561 1.82404 69.5281 1.32004C69.1681 1.75204 68.9041 1.99204 68.5201 1.99204H60.3361C60.7441 2.90405 60.8401 3.19204 61.2001 3.19204ZM58.4881 5.54404V6.93604H52.1281V5.54404H58.4881ZM67.7281 6.91205V9.28804H63.2641V6.91205H67.7281ZM63.2641 10.464H67.7281V12.864H63.2641V10.464ZM56.0161 13.944H54.3361V12.096H56.0161V13.944ZM63.2641 16.368V14.016H67.7281V16.368H63.2641ZM56.0161 16.752H54.3361V14.976H56.0161V16.752ZM56.0161 19.632H54.3361V17.784H56.0161V19.632ZM64.7041 18.816L63.7921 18.072C62.5921 19.584 60.5281 21.12 59.1601 22.008C58.8721 22.2 58.9921 22.56 59.4241 22.416C61.3921 21.816 63.5281 20.496 64.8721 19.584C65.2081 19.344 65.1361 19.152 64.7041 18.816ZM70.2481 20.424C69.2641 19.608 68.1121 19.008 66.6001 18.384C66.2161 18.216 66.1201 18.6 66.2881 18.768C67.2241 19.704 68.2561 20.904 69.1921 21.888C70.5601 23.304 71.4241 21.408 70.2481 20.424Z" fill="white"/>
<path d="M80.4961 8.97604V9.84004C81.4561 10.056 82.3921 9.74404 82.3681 8.59204V3.16804C82.3681 2.66404 82.9921 2.04004 82.0561 1.80005L80.4961 1.41604C80.2081 1.75204 79.9681 1.94404 79.5601 1.94404H76.2961C76.2721 1.84804 76.1281 1.70404 75.9361 1.65604L74.4241 1.32004V22.512C75.3121 22.704 76.2961 22.272 76.2961 21.312V8.97604H80.4961ZM92.6881 1.80005L91.1521 1.39204C90.9121 1.75204 90.6481 1.94404 90.2401 1.94404H86.9521C86.9041 1.87204 86.7841 1.75204 86.5681 1.70404L85.1041 1.39204V9.76805C85.8001 9.91205 86.7601 9.79205 86.9521 8.92805H91.1521V20.424C91.1521 20.52 91.1281 20.568 91.0801 20.616C90.9841 20.712 88.7761 20.64 88.2721 20.64C88.0561 20.64 88.0081 20.928 88.2241 21C88.6081 21.144 88.9201 21.264 89.3041 21.432C89.9281 21.696 90.6001 22.08 91.0561 22.416C91.8961 23.04 93.0241 22.32 93.0241 21.192V3.21604C93.0241 2.90405 93.6961 2.06404 92.6881 1.80005ZM80.4961 3.12004V4.84804H76.2961V3.12004H80.4961ZM91.1521 3.12004V4.84804H86.9761V3.12004H91.1521ZM76.2961 7.80004V6.02405H80.4961V7.80004H76.2961ZM86.9761 7.75204V6.02405H91.1521V7.75204H86.9761ZM87.4081 11.52L85.8961 11.136C85.5361 11.472 85.3441 11.64 84.9121 11.64H81.5761C81.5761 11.496 81.4801 11.4 81.1681 11.328L79.7041 11.04V19.248C80.6641 19.416 81.5761 19.032 81.5761 18.048V17.76H85.8961V18.984C86.8321 19.128 87.7681 18.888 87.7681 17.904V12.84C87.7681 12.432 88.3681 11.76 87.4081 11.52ZM81.5761 16.56V12.816H85.8961V16.56H81.5761Z" fill="white"/>
<path d="M106.872 15.384L103.656 12.024L106.776 8.78405L105.72 7.75204L102.648 10.968L99.5521 7.75204L98.4961 8.78405L101.616 12.024L98.4001 15.384L99.4561 16.416L102.648 13.104L105.816 16.416L106.872 15.384Z" fill="white"/>
<path d="M114.523 4.12805C115.171 5.73604 116.803 4.70404 116.179 3.12004C115.771 2.08804 114.547 1.24804 113.755 0.864044C113.443 0.720045 113.299 0.936045 113.395 1.20004C113.635 1.82404 114.091 3.04804 114.523 4.12805ZM130.795 18.912C130.387 19.44 130.099 19.68 129.643 19.68H125.659V9.93604H129.115C129.979 9.93604 130.483 9.69604 130.483 9.07204C130.483 8.78404 130.099 8.44805 129.571 7.89605C129.043 8.42404 128.875 8.64004 128.419 8.64004H125.659V1.75204C125.659 1.63204 125.467 1.44004 125.179 1.39204L123.643 1.08004V8.64004H118.771C119.203 9.69605 119.275 9.93604 119.707 9.93604H123.643V19.68H117.307C117.835 20.808 117.931 21.096 118.387 21.096H130.435C131.299 21.096 131.851 20.808 131.851 20.256C131.851 19.896 131.371 19.464 130.795 18.912ZM117.595 13.512C118.795 15.456 120.139 13.632 118.939 12.192C118.315 11.448 117.331 10.848 116.467 10.392C117.667 8.85604 118.363 7.51204 118.651 6.96004C118.891 6.48004 118.819 6.26405 118.339 5.88004L117.427 5.16005C116.971 5.59205 116.707 5.68805 116.155 5.68805H110.323C110.707 6.69604 110.827 6.93604 111.259 6.93604H116.491C116.155 7.80004 115.627 8.88005 114.451 10.512C113.299 12.096 112.099 13.632 110.323 15.312C110.107 15.504 110.347 15.84 110.635 15.672C111.979 14.88 113.107 13.944 114.091 13.008V22.512C115.099 22.704 115.987 22.368 115.987 21.192V11.184C116.491 11.832 117.067 12.672 117.595 13.512Z" fill="white"/>
<path d="M154.963 14.04C154.531 14.496 154.315 14.688 153.859 14.688H151.123V11.544H153.403C154.267 11.544 154.699 11.352 154.699 10.8C154.699 10.464 154.315 10.08 153.811 9.62404C153.403 10.08 153.163 10.272 152.731 10.272H151.123V7.10404H153.859C154.699 7.10404 155.131 6.88805 155.131 6.33605C155.131 5.95204 154.723 5.64004 154.243 5.18404C153.835 5.64004 153.595 5.85604 153.187 5.85604H151.435C152.203 4.92004 153.163 3.45605 153.883 2.30404C154.123 1.92004 154.051 1.80005 153.571 1.53604L152.275 0.840044C151.915 2.25604 151.147 4.56004 150.547 5.85604H146.107C146.539 6.79205 146.635 7.10404 147.043 7.10404H149.203V10.272H145.531C145.963 11.256 146.083 11.544 146.491 11.544H149.203V14.688H144.547C144.931 15.696 145.075 15.984 145.507 15.984H149.203V22.656C150.115 22.848 151.123 22.512 151.123 21.48V15.984H154.555C155.443 15.984 155.851 15.744 155.851 15.216C155.851 14.856 155.443 14.52 154.963 14.04ZM147.691 4.60804C148.555 6.26404 150.091 4.72804 149.083 3.24005C148.579 2.49604 147.763 1.92004 146.659 1.27204C146.371 1.10404 146.155 1.32004 146.299 1.60804C146.635 2.30404 147.163 3.60004 147.691 4.60804ZM143.539 13.344L141.979 12.84C141.691 13.176 141.499 13.368 141.067 13.368H139.099C139.075 13.248 138.907 13.128 138.691 13.08L138.235 13.008C138.499 12.336 138.739 11.64 138.907 10.992H141.763V11.856C142.675 12.072 143.611 11.64 143.611 10.632V7.41604H144.619C145.387 7.41604 145.843 7.20004 145.843 6.64804C145.843 6.31204 145.483 6.02404 144.979 5.54404C144.547 6.02404 144.331 6.21604 143.899 6.21604H143.611V3.52804C143.611 2.97604 144.115 2.42404 143.251 2.18404L141.763 1.75204C141.427 2.13604 141.163 2.30404 140.683 2.30404H135.163C135.547 3.14404 135.619 3.50404 136.027 3.50404H137.851C137.851 4.36804 137.827 5.30404 137.779 6.21604H134.107C134.539 7.17604 134.587 7.41604 134.995 7.41604H137.707C137.635 8.32804 137.539 9.16805 137.443 9.79205H135.067C135.451 10.68 135.547 10.992 135.931 10.992H137.227C137.035 11.832 136.723 12.888 136.267 13.992C135.643 15.456 134.779 16.824 134.227 17.568C133.963 17.904 134.251 18.144 134.587 17.904C135.355 17.424 136.387 16.296 137.275 14.88V22.512C138.043 22.728 139.123 22.416 139.123 21.36V20.4H141.979V21.936C142.819 22.128 143.827 21.768 143.827 20.736V14.736C143.827 14.352 144.379 13.608 143.539 13.344ZM139.723 3.50404H141.763V6.21604H139.603C139.675 5.28004 139.699 4.34405 139.723 3.50404ZM139.507 7.41604H141.763V9.79205H139.171C139.315 9.04805 139.411 8.23204 139.507 7.41604ZM139.123 19.128V14.592H141.979V19.128H139.123Z" fill="white"/>
<path d="M161.419 4.05604C162.067 6.07204 163.795 4.53604 162.955 3.02404C162.571 2.32804 161.779 1.60804 160.891 0.984044C160.627 0.816045 160.435 1.08004 160.531 1.32004C160.795 1.96804 161.203 3.38404 161.419 4.05604ZM179.083 15.792C178.675 16.272 178.459 16.464 178.003 16.464H177.547V12.096C177.547 11.616 178.171 11.04 177.115 10.728L175.723 10.32C175.435 10.68 175.147 10.872 174.715 10.872H173.395V9.45605H178.315C179.107 9.45605 179.539 9.21605 179.539 8.71205C179.539 8.40005 179.203 8.08804 178.675 7.58404C178.291 8.06404 178.075 8.25604 177.619 8.25604H175.507V6.88805H176.995C177.763 6.88805 178.171 6.64804 178.171 6.14404C178.171 5.88004 177.859 5.54404 177.355 5.08804C176.995 5.52004 176.755 5.73604 176.299 5.73604H175.507V4.27204H177.595C178.363 4.27204 178.795 4.05604 178.795 3.55204C178.795 3.24005 178.459 2.92804 177.955 2.47204C177.571 2.90405 177.379 3.12004 176.971 3.12004H175.507V1.53604C175.507 1.44004 175.411 1.32004 175.171 1.27204L173.707 1.00804V3.12004H171.235V1.48804C171.235 1.39204 171.139 1.29604 170.899 1.24804L169.435 0.936045V3.12004H166.291C166.747 4.05604 166.795 4.27204 167.227 4.27204H169.435V5.73604H167.131C167.539 6.69604 167.635 6.88805 168.043 6.88805H169.435V8.25604H165.691C166.123 9.24005 166.195 9.45605 166.627 9.45605H171.571V10.872H169.291C169.267 10.752 169.147 10.632 168.859 10.56L167.467 10.296V16.464H165.283C165.691 17.448 165.811 17.664 166.219 17.664H167.467V22.44C168.403 22.656 169.291 22.272 169.291 21.336V17.664H175.723V20.544C175.723 20.664 175.675 20.736 175.579 20.76C175.291 20.832 173.755 20.784 173.323 20.76C173.011 20.736 173.059 21.048 173.275 21.12C173.803 21.288 174.907 21.744 175.651 22.344C176.419 22.968 177.547 22.344 177.547 21.264V17.664H178.699C179.491 17.664 179.947 17.424 179.947 16.92C179.947 16.608 179.587 16.296 179.083 15.792ZM171.235 4.27204H173.707V5.73604H171.235V4.27204ZM164.779 6.69604C165.595 6.69604 166.051 6.43204 166.051 5.85604C166.051 5.56805 165.691 5.25604 165.139 4.75204C164.707 5.25604 164.515 5.42404 164.059 5.42404H158.059C158.443 6.43204 158.563 6.69604 158.971 6.69604H164.779ZM171.235 6.88805H173.707V8.25604H171.235V6.88805ZM159.595 9.69604H163.819C164.587 9.69604 165.043 9.45604 165.043 8.88004C165.043 8.56804 164.755 8.30404 164.155 7.75204C163.723 8.25604 163.507 8.44805 163.051 8.44805H158.731C159.163 9.45604 159.235 9.69604 159.595 9.69604ZM159.739 12.744H163.795C164.563 12.744 165.043 12.48 165.043 11.928C165.043 11.616 164.731 11.352 164.131 10.8C163.699 11.304 163.483 11.52 163.051 11.52H158.875C159.307 12.48 159.355 12.744 159.739 12.744ZM171.571 13.656H169.291V12.024H171.571V13.656ZM175.723 12.024V13.656H173.395V12.024H175.723ZM164.755 14.664L163.291 14.232C162.931 14.664 162.739 14.784 162.187 14.784H160.891C160.891 14.664 160.747 14.52 160.483 14.472L159.115 14.184V22.296C160.171 22.392 160.891 22.056 160.891 20.928V20.448H163.291V21.696C164.347 21.792 165.067 21.456 165.067 20.496V16.104C165.067 15.576 165.667 14.928 164.755 14.664ZM169.291 14.808H171.571V16.464H169.291V14.808ZM173.395 16.464V14.808H175.723V16.464H173.395ZM160.891 19.2V16.008H163.291V19.2H160.891Z" fill="white"/>
<path d="M190.051 13.32L188.491 12.816C188.131 13.224 187.963 13.368 187.483 13.368H184.987V10.368H188.299V11.448C189.379 11.64 190.171 11.208 190.171 10.344V5.20804C190.171 4.72804 190.795 4.05604 189.859 3.79205L188.299 3.33604C187.963 3.72004 187.795 3.91205 187.339 3.91205H186.427C186.835 3.38404 187.387 2.59204 187.771 2.06404C188.035 1.70404 187.987 1.53604 187.411 1.27204L186.163 0.696045C185.995 1.82404 185.755 2.92804 185.515 3.91205H184.987V3.86404C184.987 3.76804 184.795 3.60004 184.531 3.55204L183.115 3.24005V22.344C184.219 22.488 184.987 22.128 184.987 21.048V20.04H188.491V21.36C189.571 21.552 190.363 21.096 190.363 20.208V14.712C190.363 14.136 190.987 13.632 190.051 13.32ZM202.267 3.36004C203.155 3.36004 203.635 3.07204 203.635 2.54404C203.635 2.13604 203.227 1.87204 202.675 1.36804C202.219 1.87204 201.979 2.08804 201.571 2.08804H190.771C191.203 3.09604 191.323 3.36004 191.755 3.36004H196.267V6.64804H193.915C193.915 6.50404 193.771 6.36004 193.507 6.31204L192.043 6.02405V19.008C193.003 19.152 193.915 18.816 193.915 17.712V7.89605H196.267V22.584C197.371 22.728 198.163 22.392 198.163 21.168V7.89605H200.563V17.064C200.563 17.136 200.587 17.304 200.515 17.352C200.347 17.472 199.603 17.4 198.859 17.4C198.595 17.4 198.619 17.688 198.811 17.76C199.411 17.976 200.203 18.408 200.707 18.84C201.499 19.512 202.435 18.96 202.435 17.904V8.04004C202.435 7.60804 203.083 6.98404 202.099 6.64804L200.563 6.12005C200.275 6.48004 200.059 6.64804 199.651 6.64804H198.163V3.36004H202.267ZM188.299 5.13604V9.12004H184.987V5.13604H188.299ZM184.987 18.768V14.592H188.491V18.768H184.987Z" fill="white"/>
</svg>
