<svg width="23" height="22" viewBox="0 0 23 22" fill="none" xmlns="http://www.w3.org/2000/svg">
<path d="M20.4062 0H3.21875C1.9248 0 0.875 1.0498 0.875 2.34375V19.5312C0.875 20.8252 1.9248 21.875 3.21875 21.875H20.4062C21.7002 21.875 22.75 20.8252 22.75 19.5312V2.34375C22.75 1.0498 21.7002 0 20.4062 0ZM18.0186 7.75391C18.0283 7.89062 18.0283 8.03223 18.0283 8.16895C18.0283 12.4023 14.8057 17.2803 8.91699 17.2803C7.10059 17.2803 5.41602 16.7529 4 15.8447C4.25879 15.874 4.50781 15.8838 4.77148 15.8838C6.27051 15.8838 7.64746 15.376 8.74609 14.5166C7.33984 14.4873 6.1582 13.5645 5.75293 12.2949C6.24609 12.3682 6.69043 12.3682 7.19824 12.2363C5.7334 11.9385 4.63477 10.6494 4.63477 9.0918V9.05273C5.05957 9.29199 5.55762 9.43848 6.08008 9.45801C5.64083 9.16584 5.28075 8.76947 5.03197 8.30427C4.78318 7.83908 4.65343 7.31953 4.6543 6.79199C4.6543 6.19629 4.81055 5.64941 5.08887 5.17578C6.66602 7.11914 9.03418 8.38867 11.6904 8.52539C11.2363 6.35254 12.8623 4.58984 14.8154 4.58984C15.7383 4.58984 16.5684 4.97559 17.1543 5.60059C17.877 5.46387 18.5703 5.19531 19.1855 4.8291C18.9463 5.57129 18.4434 6.19629 17.7793 6.5918C18.4238 6.52344 19.0488 6.34277 19.625 6.09375C19.1904 6.7334 18.6436 7.2998 18.0186 7.75391Z" fill="#51A8DD"/>
</svg>
