<svg width="23" height="23" viewBox="0 0 23 23" fill="none" xmlns="http://www.w3.org/2000/svg">
<path d="M20.0312 0.5625H2.84375C1.5498 0.5625 0.5 1.6123 0.5 2.90625V20.0938C0.5 21.3877 1.5498 22.4375 2.84375 22.4375H20.0312C21.3252 22.4375 22.375 21.3877 22.375 20.0938V2.90625C22.375 1.6123 21.3252 0.5625 20.0312 0.5625ZM14.04 19.2979C13.6299 19.3711 13.4785 19.1172 13.4785 18.9072C13.4785 18.6436 13.4883 17.2959 13.4883 16.207C13.4883 15.4453 13.2344 14.9619 12.9365 14.708C14.7432 14.5078 16.6475 14.2588 16.6475 11.1387C16.6475 10.25 16.3301 9.80566 15.8125 9.23438C15.8955 9.02441 16.1738 8.16016 15.7295 7.03711C15.0508 6.82715 13.498 7.91113 13.498 7.91113C12.8535 7.73047 12.1553 7.6377 11.4668 7.6377C10.7783 7.6377 10.0801 7.73047 9.43555 7.91113C9.43555 7.91113 7.88281 6.82715 7.2041 7.03711C6.75977 8.15527 7.0332 9.01953 7.12109 9.23438C6.60352 9.80566 6.35938 10.25 6.35938 11.1387C6.35938 14.2441 8.18066 14.5078 9.9873 14.708C9.75293 14.918 9.54297 15.2793 9.46973 15.7969C9.00586 16.0068 7.81934 16.3682 7.11133 15.1182C6.66699 14.3467 5.86621 14.2832 5.86621 14.2832C5.0752 14.2734 5.8125 14.7813 5.8125 14.7813C6.33984 15.0254 6.71094 15.9629 6.71094 15.9629C7.18457 17.4131 9.4502 16.9248 9.4502 16.9248C9.4502 17.6035 9.45996 18.707 9.45996 18.9072C9.45996 19.1172 9.31348 19.3711 8.89844 19.2979C5.67578 18.2188 3.41992 15.1523 3.41992 11.5684C3.41992 7.08594 6.84766 3.68262 11.3301 3.68262C15.8125 3.68262 19.4453 7.08594 19.4453 11.5684C19.4502 15.1523 17.2627 18.2236 14.04 19.2979ZM9.25 16.3145C9.15723 16.334 9.06934 16.2949 9.05957 16.2314C9.0498 16.1582 9.11328 16.0947 9.20605 16.0752C9.29883 16.0654 9.38672 16.1045 9.39648 16.168C9.41113 16.2314 9.34766 16.2949 9.25 16.3145ZM8.78613 16.2705C8.78613 16.334 8.71289 16.3877 8.61523 16.3877C8.50781 16.3975 8.43457 16.3438 8.43457 16.2705C8.43457 16.207 8.50781 16.1533 8.60547 16.1533C8.69824 16.1436 8.78613 16.1973 8.78613 16.2705ZM8.11719 16.2168C8.09766 16.2803 8 16.3096 7.91699 16.2803C7.82422 16.2607 7.76074 16.1875 7.78027 16.124C7.7998 16.0605 7.89746 16.0313 7.98047 16.0508C8.07812 16.0801 8.1416 16.1533 8.11719 16.2168ZM7.5166 15.9531C7.47266 16.0068 7.37988 15.9971 7.30664 15.9238C7.2334 15.8604 7.21387 15.7676 7.2627 15.7236C7.30664 15.6699 7.39941 15.6797 7.47266 15.7529C7.53613 15.8164 7.56055 15.9141 7.5166 15.9531ZM7.07227 15.5088C7.02832 15.5381 6.94531 15.5088 6.8916 15.4355C6.83789 15.3623 6.83789 15.2793 6.8916 15.2451C6.94531 15.2012 7.02832 15.2354 7.07227 15.3086C7.12598 15.3818 7.12598 15.4697 7.07227 15.5088V15.5088ZM6.75488 15.0352C6.71094 15.0791 6.6377 15.0547 6.58398 15.0059C6.53027 14.9424 6.52051 14.8691 6.56445 14.835C6.6084 14.791 6.68164 14.8154 6.73535 14.8643C6.78906 14.9277 6.79883 15.001 6.75488 15.0352ZM6.42773 14.6738C6.4082 14.7178 6.34473 14.7275 6.29102 14.6934C6.22754 14.6641 6.19824 14.6104 6.21777 14.5664C6.2373 14.5371 6.29102 14.5225 6.35449 14.5469C6.41797 14.5811 6.44727 14.6348 6.42773 14.6738Z" fill="#51A8DD"/>
</svg>
