<?xml version="1.0" encoding="utf-8"?>
<!-- Generator: Adobe Illustrator 17.1.0, SVG Export Plug-In . SVG Version: 6.00 Build 0)  -->
<!DOCTYPE svg PUBLIC "-//W3C//DTD SVG 1.1//EN" "http://www.w3.org/Graphics/SVG/1.1/DTD/svg11.dtd">
<svg version="1.1" id="圖層_1" xmlns="http://www.w3.org/2000/svg" xmlns:xlink="http://www.w3.org/1999/xlink" x="0px" y="0px"
	 viewBox="0 0 1750 761.1" enable-background="new 0 0 1750 761.1" xml:space="preserve">
<g>
	<polygon fill="#224E6D" points="1255.5,307.5 1526.7,761.1 1255.5,595.5 1133.9,358.2 1061.8,217.2 	"/>
	<polygon fill="#5786A7" points="1259.6,174 1531.2,322.7 1677.1,481.5 1072.8,232.1 	"/>
	<circle fill="#2D6891" cx="875" cy="284.1" r="54.7"/>
	<polygon fill="#2D6891" points="1080.1,0 929.7,209.6 961.6,284.1 929.7,358.5 929.7,733.7 982.8,601.6 981.3,382.8 1025.4,284.1 
		1004.9,206.6 	"/>
	<polygon fill="#5786A7" points="1029.8,138.2 1183.4,89.6 1018.6,258.4 1004.9,206.6 	"/>
	<polygon fill="#81A4BD" points="1153.3,120.4 1417.3,19.7 1750,45.6 1069.3,206.5 	"/>
	<polygon fill="#2D6891" points="1059.9,216.1 1140.8,303.8 1118,481.5 1036.3,240.3 	"/>
	<polygon fill="#224E6D" points="1008.2,322.7 1051.1,284.1 1036.3,240.3 1018.6,258.4 1025.4,284.1 	"/>
	<g>
		<path fill="#314C5E" d="M916.2,270.9c0,0,0.1,0.3,0.3,1c0.2,0.6,0.5,1.6,0.7,2.8c0.1,0.6,0.3,1.3,0.4,2c0.1,0.7,0.1,1.6,0.2,2.4
			c0.1,0.9,0.1,1.8,0.2,2.9c0,0.5,0,1,0,1.5c0,0.5-0.1,1-0.1,1.6c-0.1,1.1-0.2,2.2-0.3,3.4c-0.2,1.2-0.5,2.3-0.8,3.6
			c-0.1,0.6-0.3,1.2-0.4,1.9c-0.2,0.6-0.4,1.2-0.6,1.9c-0.4,1.3-0.9,2.5-1.4,3.8c-0.6,1.2-1.3,2.5-1.9,3.8c-0.4,0.6-0.6,1.3-1.1,1.9
			c-0.4,0.6-0.8,1.2-1.2,1.8c-1.6,2.5-3.6,4.7-5.6,6.9c-2.2,2-4.4,4.1-6.9,5.6c-0.6,0.4-1.2,0.8-1.8,1.2c-0.6,0.4-1.3,0.7-1.9,1.1
			c-1.3,0.7-2.5,1.3-3.8,1.9c-1.3,0.5-2.6,1-3.8,1.4c-0.6,0.2-1.2,0.5-1.9,0.6c-0.6,0.2-1.3,0.3-1.9,0.4c-1.2,0.3-2.4,0.5-3.6,0.8
			c-1.2,0.1-2.3,0.2-3.4,0.3c-0.5,0-1.1,0.1-1.6,0.1c-0.5,0-1,0.1-1.5,0c-1-0.1-1.9-0.1-2.8-0.2c-0.9-0.1-1.7-0.1-2.4-0.2
			c-0.7-0.1-1.4-0.3-2-0.4c-1.2-0.3-2.2-0.6-2.8-0.7c-0.6-0.2-1-0.3-1-0.3s0.3-0.2,1-0.4c0.6-0.2,1.5-0.6,2.6-1
			c0.6-0.2,1.2-0.4,1.8-0.6c0.7-0.3,1.4-0.6,2.1-0.9c0.7-0.3,1.5-0.6,2.4-1c0.8-0.3,1.6-0.8,2.5-1.2c0.9-0.4,1.8-0.8,2.7-1.3
			c0.9-0.5,1.8-1,2.7-1.5c0.5-0.3,0.9-0.5,1.4-0.8c0.5-0.3,0.9-0.6,1.4-0.9c0.9-0.6,1.9-1.2,2.9-1.8c1.8-1.4,3.8-2.6,5.5-4.2
			c1.9-1.4,3.5-3.2,5.3-4.7c1.6-1.8,3.3-3.4,4.7-5.3c1.6-1.8,2.8-3.7,4.2-5.5c0.6-1,1.2-1.9,1.8-2.9c0.3-0.5,0.6-0.9,0.9-1.4
			c0.2-0.5,0.5-1,0.8-1.4c0.5-0.9,1-1.9,1.5-2.7c0.4-0.9,0.8-1.8,1.3-2.7c0.4-0.9,0.9-1.7,1.2-2.5c0.3-0.8,0.6-1.6,0.9-2.3
			c0.3-0.7,0.6-1.4,0.9-2.1c0.2-0.7,0.4-1.3,0.6-1.9c0.4-1.2,0.8-2.1,1-2.7C916.1,271.2,916.2,270.9,916.2,270.9z"/>
	</g>
	<polygon fill="#FFFFFF" points="1033.3,145.8 1161.7,102.2 1130.9,133.7 1132.8,120.4 	"/>
	<polygon fill="#FFFFFF" points="1167.7,131.1 1420.8,37 1677.1,51.1 1422.4,65.3 	"/>
	<polygon fill="#314C5E" points="1342.9,113.1 1285,155.5 1555.4,91.6 1324.1,138.2 	"/>
	<polygon fill="#2D6891" points="1069.3,206.5 1342.9,113.1 1198.5,218.7 1041,235.5 	"/>
	<polygon fill="#FFFFFF" points="1088.5,210.1 1294.2,138.2 1234,184.3 1243.6,167.1 	"/>
	<polygon fill="#FFFFFF" points="1105.9,421.8 1044.4,248.1 1080.1,251 1061.8,258.4 	"/>
	<polygon fill="#FFFFFF" points="1129.2,240.3 1208.2,240.3 1258.8,192.9 1526.7,335 1264.9,229.4 1217.3,265.8 	"/>
	<polygon fill="#FFFFFF" points="1161.7,300.4 1156.5,366.9 1267.9,583.8 1362.1,636.5 1285,565.6 1175.8,366.9 	"/>
	<polygon fill="#FFFFFF" points="1029.6,89.6 948.7,206.5 976,284.1 942.7,366.9 942.7,666.9 957,378.2 998.8,284.1 966.1,216.1 	
		"/>
	<polygon fill="#314C5E" points="1029.8,138.2 1004.9,206.6 1018.6,258.4 1017.3,206.5 	"/>
	<polygon fill="#314C5E" points="1153.3,120.4 1072.8,232.1 1036.3,240.3 	"/>
	<polygon fill="#314C5E" points="1260.1,174.3 1200.8,229.4 1072.8,232.1 1200.6,217.2 	"/>
	<polygon fill="#19262F" points="1133.9,358.2 1140.8,303.8 1072.8,232.1 1255.5,307.5 1129.2,273.1 1153.3,300.4 	"/>
	<polygon fill="#314C5E" points="929.7,733.7 982.8,601.6 981.3,382.8 972.2,595.5 	"/>
	<polygon fill="#19262F" points="1036.3,240.3 1018.6,258.4 1025.4,284.1 1008.2,322.7 1036.3,284.1 1027.4,263.9 	"/>
	<polygon fill="#224E6D" points="494.5,307.5 223.3,761.1 494.5,595.5 616.1,358.2 688.1,217.2 	"/>
	<polygon fill="#5786A7" points="490.3,174 218.7,322.7 72.9,481.5 677.2,232.1 	"/>
	<polygon fill="#2D6891" points="669.9,0 820.3,209.6 788.4,284.1 820.3,358.5 820.3,733.7 767.1,601.6 768.6,382.8 724.6,284.1 
		745.1,206.6 	"/>
	<polygon fill="#5786A7" points="720.2,138.2 566.6,89.6 731.4,258.4 745.1,206.6 	"/>
	<polygon fill="#81A4BD" points="596.6,120.4 332.7,19.7 0,45.6 680.7,206.5 	"/>
	<polygon fill="#2D6891" points="690,216.1 609.1,303.8 631.9,481.5 713.7,240.3 	"/>
	<polygon fill="#224E6D" points="741.8,322.7 698.9,284.1 713.7,240.3 731.4,258.4 724.6,284.1 	"/>
	<polygon fill="#FFFFFF" points="716.6,145.8 588.3,102.2 619,133.7 617.1,120.4 	"/>
	<polygon fill="#FFFFFF" points="582.3,131.1 329.1,37 72.9,51.1 327.6,65.3 	"/>
	<polygon fill="#314C5E" points="407.1,113.1 465,155.5 194.6,91.6 425.8,138.2 	"/>
	<polygon fill="#2D6891" points="680.7,206.5 407.1,113.1 551.4,218.7 709,235.5 	"/>
	<polygon fill="#FFFFFF" points="661.4,210.1 455.7,138.2 516,184.3 506.4,167.1 	"/>
	<polygon fill="#FFFFFF" points="644.1,421.8 705.6,248.1 669.9,251 688.1,258.4 	"/>
	<polygon fill="#FFFFFF" points="620.8,240.3 541.8,240.3 491.2,192.9 223.3,335 485.1,229.4 532.7,265.8 	"/>
	<polygon fill="#FFFFFF" points="588.3,300.4 593.5,366.9 482.1,583.8 387.9,636.5 465,565.6 574.2,366.9 	"/>
	<polygon fill="#FFFFFF" points="720.3,89.6 801.3,206.5 774,284.1 807.3,366.9 807.3,666.9 793,378.2 751.2,284.1 783.8,216.1 	"/>
	<polygon fill="#314C5E" points="720.2,138.2 745.1,206.6 731.4,258.4 732.7,206.5 	"/>
	<polygon fill="#314C5E" points="596.6,120.4 677.2,232.1 713.7,240.3 	"/>
	<polygon fill="#314C5E" points="489.9,174.3 549.1,229.4 677.2,232.1 549.3,217.2 	"/>
	<polygon fill="#19262F" points="616.1,358.2 609.1,303.8 677.2,232.1 494.5,307.5 620.8,273.1 596.6,300.4 	"/>
	<polygon fill="#314C5E" points="820.3,733.7 767.1,601.6 768.6,382.8 777.8,595.5 	"/>
	<polygon fill="#19262F" points="713.7,240.3 731.4,258.4 724.6,284.1 741.8,322.7 713.7,284.1 722.6,263.9 	"/>
	<circle fill="#FFFFFF" cx="858" cy="251.7" r="9"/>
	<circle fill="#FFFFFF" cx="845.7" cy="263.9" r="3.3"/>
</g>
</svg>
