<svg width="23" height="23" viewBox="0 0 23 23" fill="none" xmlns="http://www.w3.org/2000/svg">
<path d="M20.4062 0.5625H3.21875C1.9248 0.5625 0.875 1.6123 0.875 2.90625V20.0938C0.875 21.3877 1.9248 22.4375 3.21875 22.4375H20.4062C21.7002 22.4375 22.75 21.3877 22.75 20.0938V2.90625C22.75 1.6123 21.7002 0.5625 20.4062 0.5625ZM18.0186 8.31641C18.0283 8.45313 18.0283 8.59473 18.0283 8.73145C18.0283 12.9648 14.8057 17.8428 8.91699 17.8428C7.10059 17.8428 5.41602 17.3154 4 16.4072C4.25879 16.4365 4.50781 16.4463 4.77148 16.4463C6.27051 16.4463 7.64746 15.9385 8.74609 15.0791C7.33984 15.0498 6.1582 14.127 5.75293 12.8574C6.24609 12.9307 6.69043 12.9307 7.19824 12.7988C5.7334 12.501 4.63477 11.2119 4.63477 9.6543V9.61523C5.05957 9.85449 5.55762 10.001 6.08008 10.0205C5.64083 9.72834 5.28075 9.33197 5.03197 8.86677C4.78318 8.40158 4.65343 7.88203 4.6543 7.35449C4.6543 6.75879 4.81055 6.21191 5.08887 5.73828C6.66602 7.68164 9.03418 8.95117 11.6904 9.08789C11.2363 6.91504 12.8623 5.15234 14.8154 5.15234C15.7383 5.15234 16.5684 5.53809 17.1543 6.16309C17.877 6.02637 18.5703 5.75781 19.1855 5.3916C18.9463 6.13379 18.4434 6.75879 17.7793 7.1543C18.4238 7.08594 19.0488 6.90527 19.625 6.65625C19.1904 7.2959 18.6436 7.8623 18.0186 8.31641Z" fill="#51A8DD"/>
</svg>
